<svg width="20" height="20" viewBox="0 0 20 20" fill="none" xmlns="http://www.w3.org/2000/svg">
<path d="M0 6.85114V15.6756C0 17.0226 1.09388 18.1164 2.44082 18.1164H17.5592C18.9061 18.1164 20 17.0226 20 15.6756V6.85114C20 5.5695 18.9592 4.52869 17.6776 4.52869H14.4286L14.351 4.18991C14.0367 2.83073 12.8408 1.88379 11.4449 1.88379H8.55102C7.15918 1.88379 5.96327 2.83073 5.6449 4.18991L5.56735 4.52869H2.32245C1.04082 4.52869 0 5.57359 0 6.85114ZM5.96735 5.52869C6.2 5.52869 6.4 5.3695 6.45306 5.14093L6.62041 4.4144C6.83265 3.51236 7.62449 2.88379 8.55102 2.88379H11.4449C12.3714 2.88379 13.1633 3.51236 13.3755 4.4144L13.5429 5.14093C13.5959 5.36542 13.7959 5.52869 14.0286 5.52869H17.6735C18.4041 5.52869 18.9959 6.12052 18.9959 6.85114V15.6756C18.9959 16.4715 18.351 17.1164 17.5551 17.1164H2.44082C1.6449 17.1164 1 16.4715 1 15.6756V6.85114C1 6.12052 1.59184 5.52869 2.32245 5.52869H5.96735Z" fill="black"/>
<path d="M3.38423 8.33243C3.75392 8.33243 4.05362 8.03273 4.05362 7.66304C4.05362 7.29335 3.75392 6.99365 3.38423 6.99365C3.01454 6.99365 2.71484 7.29335 2.71484 7.66304C2.71484 8.03273 3.01454 8.33243 3.38423 8.33243Z" fill="black"/>
<path d="M10.0008 15.5489C12.3151 15.5489 14.2008 13.6632 14.2008 11.3489C14.2008 9.03464 12.3151 7.14893 10.0008 7.14893C7.6865 7.14893 5.80078 9.03056 5.80078 11.3489C5.80078 13.6673 7.6865 15.5489 10.0008 15.5489ZM10.0008 8.14893C11.764 8.14893 13.2008 9.58566 13.2008 11.3489C13.2008 13.1122 11.764 14.5489 10.0008 14.5489C8.23752 14.5489 6.80078 13.1122 6.80078 11.3489C6.80078 9.58566 8.23752 8.14893 10.0008 8.14893Z" fill="black"/>
</svg>
