<svg width="24" height="24" viewBox="0 0 24 24" fill="none" xmlns="http://www.w3.org/2000/svg">
<g clip-path="url(#clip0_943_1919)">
<path d="M4.84864 23.4333C4.75971 23.4333 4.67078 23.4058 4.59604 23.3512C4.46372 23.255 4.39756 23.0922 4.42549 22.9311L5.75336 15.1907L0.12957 9.70953C0.0127211 9.59526 -0.0293789 9.42472 0.0208834 9.26963C0.0715752 9.11412 0.206037 9.00071 0.367994 8.97708L8.13931 7.84768L11.6151 0.805386C11.6873 0.658466 11.8368 0.565674 12 0.565674C12.1637 0.565674 12.3132 0.658466 12.385 0.805386L15.8604 7.84768L23.6321 8.97708C23.7941 9.00071 23.9281 9.11369 23.9792 9.26963C24.0295 9.42472 23.9878 9.59569 23.8705 9.70953L18.2467 15.1916L19.5742 22.9315C19.6017 23.0926 19.5355 23.2554 19.4036 23.3517C19.2713 23.4487 19.0956 23.4612 18.9508 23.3843L12 19.7302L5.0484 23.3843C4.98567 23.4169 4.91694 23.4333 4.84864 23.4333ZM1.35262 9.7018L6.51459 14.7336C6.61555 14.832 6.66194 14.9746 6.63788 15.1138L5.41913 22.2184L11.8003 18.8641C11.9253 18.798 12.0744 18.798 12.2002 18.8641L18.5805 22.2184L17.3622 15.1138C17.3382 14.9746 17.3846 14.8324 17.4855 14.7336L22.6475 9.7018L15.5141 8.6652C15.3741 8.64501 15.2533 8.55694 15.1906 8.43021L12 1.96657L8.80947 8.43064C8.74675 8.55737 8.62604 8.64544 8.48599 8.66563L1.35262 9.7018Z" fill="black"/>
</g>
<defs>
<clipPath id="clip0_943_1919">
<rect width="24" height="24" fill="white"/>
</clipPath>
</defs>
</svg>
