<svg width="40" height="40" viewBox="0 0 40 40" fill="none" xmlns="http://www.w3.org/2000/svg">
<circle cx="20" cy="20" r="19.5" stroke="#8EE901"/>
<g clip-path="url(#clip0_862_77)">
<path d="M27.5585 12.3896H12.4457C11.0966 12.3896 10 13.4863 10 14.8353V25.1643C10 26.5134 11.0966 27.61 12.4457 27.61H27.5543C28.9034 27.61 30 26.5134 30 25.1643V14.8395C30.0041 13.4904 28.9075 12.3896 27.5585 12.3896ZM28.8868 25.1643C28.8868 25.8968 28.2909 26.4927 27.5585 26.4927H12.4457C11.7132 26.4927 11.1173 25.8968 11.1173 25.1643V14.8395C11.1173 14.107 11.7132 13.5111 12.4457 13.5111H27.5543C28.2868 13.5111 28.8827 14.107 28.8827 14.8395V25.1643H28.8868Z" fill="#8EE901"/>
<path d="M22.6118 19.8714L27.5032 15.4849C27.7308 15.278 27.7515 14.9263 27.5445 14.6945C27.3376 14.4669 26.9859 14.4462 26.7541 14.6532L20.0089 20.7074L18.6929 19.5321C18.6888 19.528 18.6846 19.5238 18.6846 19.5197C18.6557 19.4907 18.6267 19.4659 18.5936 19.4411L13.2387 14.649C13.007 14.4421 12.6552 14.4628 12.4483 14.6945C12.2414 14.9263 12.2621 15.278 12.4939 15.4849L17.4432 19.9087L12.5145 24.5228C12.2911 24.7339 12.2787 25.0856 12.4897 25.3132C12.6014 25.4291 12.7504 25.4911 12.8994 25.4911C13.036 25.4911 13.1725 25.4415 13.2801 25.3422L18.2832 20.6618L19.6406 21.8743C19.7481 21.9695 19.8806 22.015 20.013 22.015C20.1454 22.015 20.282 21.9654 20.3854 21.8702L21.78 20.6205L26.7541 25.3463C26.8617 25.4498 27.0024 25.4994 27.139 25.4994C27.288 25.4994 27.4328 25.4415 27.5445 25.3256C27.7556 25.1022 27.7473 24.7463 27.5239 24.5352L22.6118 19.8714Z" fill="#8EE901"/>
</g>
<defs>
<clipPath id="clip0_862_77">
<rect width="20" height="20" fill="white" transform="translate(10 10)"/>
</clipPath>
</defs>
</svg>
